<svg width="142" height="43" viewBox="0 0 142 43" fill="none" xmlns="http://www.w3.org/2000/svg">
<path d="M17.68 28V14H20.76V25.2H27.74V28H17.68Z" fill="#D9D9D9"/>
<path d="M28.8628 28V14H34.5828C37.9228 14 39.9428 15.98 39.9428 18.88C39.9428 22.12 37.4228 23.8 34.2828 23.8H31.9428V28H28.8628ZM31.9428 21.06H34.3828C35.9228 21.06 36.8228 20.14 36.8228 18.9C36.8228 17.52 35.8628 16.78 34.3228 16.78H31.9428V21.06Z" fill="#D9D9D9"/>
<path d="M40.3422 23.26V20.34H46.5022V23.26H40.3422Z" fill="#D9D9D9"/>
<path d="M54.5462 28.24C50.4263 28.24 47.3662 25.06 47.3662 21C47.3662 17.02 50.3662 13.76 54.6662 13.76C57.3062 13.76 58.7863 14.76 60.0863 16.04L58.2463 18.16C57.1663 17.18 56.2463 16.6 54.6463 16.6C52.2863 16.6 50.5863 18.56 50.5863 21C50.5863 23.4 52.2463 25.4 54.6463 25.4C56.2463 25.4 57.2262 24.76 58.3262 23.76L60.2863 25.86C58.8463 27.4 57.2463 28.24 54.5462 28.24Z" fill="#D9D9D9"/>
<path d="M61.5519 28V14H64.6319V19.54H70.3119V14H73.3919V28H70.3119V22.38H64.6319V28H61.5519Z" fill="#D9D9D9"/>
<path d="M74.3472 28L80.3472 13.9H83.1872L89.1872 28H85.9672L84.6872 24.86H78.7672L77.4872 28H74.3472ZM79.8672 22.14H83.5872L81.7272 17.6L79.8672 22.14Z" fill="#D9D9D9"/>
<path d="M91.6111 28V16.84H87.3511V14H98.9511V16.84H94.6911V28H91.6111Z" fill="#D9D9D9"/>
<path d="M97.6877 28V24.8H100.928V28H97.6877Z" fill="#D9D9D9"/>
<path d="M102.65 28V14H105.73V20.12L111.41 14H115.13L109.43 19.94L115.39 28H111.69L107.35 22.04L105.73 23.72V28H102.65Z" fill="#D9D9D9"/>
<path d="M115.64 28V25.66L123.34 16.7H115.88V14H127.3V16.34L119.6 25.3H127.3V28H115.64Z" fill="#D9D9D9"/>
<rect x="0.5" y="0.5" width="141" height="42" rx="9.5" stroke="#D9D9D9"/>
</svg>
