<svg width="200" height="40" fill="none" xmlns="http://www.w3.org/2000/svg"><path d="M93.827 2h-4.244c-1.1 0-2.086.643-2.515 1.657l-6.373 14.697-6.373-14.697A2.751 2.751 0 0071.807 2h-4.244a.64.64 0 00-.643.643v19.04a.64.64 0 00.643.642h3.615a.64.64 0 00.644-.643V7.77l6.072 14.17c.1.242.33.385.586.385h4.444a.643.643 0 00.586-.386L89.583 7.77v13.912a.64.64 0 00.643.643h3.615a.64.64 0 00.644-.643V2.642A.672.672 0 0093.826 2zm18.308 5.013h-3.544a.6.6 0 00-.514.3l-5.83 9.884v-9.57c0-.328-.272-.6-.601-.6h-3.558c-.328 0-.6.272-.6.6v14.126c0 .329.272.6.6.6h4.744a.6.6 0 00.515-.3l5.83-9.884v9.57c0 .328.271.6.6.6h3.558c.329 0 .6-.271.6-.6V8.813c0-1-.8-1.8-1.8-1.8zm26.794 0h-3.558c-.328 0-.6.271-.6.6v11.912h-4.144V7.613c0-.329-.271-.6-.6-.6h-3.558c-.329 0-.6.271-.6.6v11.912h-4.144V7.613c0-.329-.272-.6-.6-.6h-3.558a.604.604 0 00-.601.6v14.126c0 .328.272.6.601.6h21.362c.329 0 .6-.271.6-.6V7.613c0-.343-.271-.6-.6-.6zm19.922 7.242c0-1.2-.228-2.3-.685-3.271a7.694 7.694 0 00-1.829-2.457 7.761 7.761 0 00-2.701-1.542 10.358 10.358 0 00-3.287-.529c-1.229 0-2.372.186-3.401.543a7.848 7.848 0 00-2.7 1.585 7.116 7.116 0 00-1.772 2.6c-.415 1.014-.629 2.185-.629 3.485 0 1.314.229 2.5.657 3.5a7.261 7.261 0 001.872 2.585c.801.7 1.787 1.228 2.915 1.585 1.129.357 2.372.529 3.73.529.614 0 1.243-.058 1.858-.158a14 14 0 001.771-.428 8.994 8.994 0 001.601-.686 7.346 7.346 0 001.2-.814.61.61 0 00.114-.785l-.928-1.4a.608.608 0 00-.386-.257.641.641 0 00-.457.1c-.686.5-1.387.9-2.087 1.17-.728.3-1.529.444-2.386.444-1.172 0-2.158-.3-2.915-.914-.657-.529-1.115-1.372-1.358-2.543h11.203c.329 0 .6-.271.6-.6v-1.742zm-10.859-4.028c.3-.386.643-.671 1.043-.843a3.16 3.16 0 011.329-.271c.414 0 .843.1 1.257.285.414.186.772.486 1.086.872.329.414.6.942.8 1.6.172.557.272 1.214.3 1.942h-6.901c.042-.771.142-1.443.314-2 .2-.643.457-1.185.772-1.585zm26.655-3.214h-11.118a1.58 1.58 0 00-1.571 1.485l-.5 8.642c-.029.6-.101 1.1-.201 1.471-.085.357-.2.643-.328.843-.115.171-.243.3-.372.371-.143.072-.3.114-.471.114h-.672c-.329 0-.6.272-.6.6v1.371c0 .272.186.5.443.572.157.043.314.085.486.114.4.1.843.143 1.314.143 1.501 0 2.701-.429 3.573-1.286.871-.87 1.343-2.256 1.443-4.256l.4-7.384h5.001v11.912c0 .328.272.6.601.6h3.558c.328 0 .6-.272.6-.6V8.585a1.59 1.59 0 00-1.586-1.572zm18.567 6.357c-1.158-.9-2.987-1.358-5.444-1.358h-3.744V7.6c0-.329-.272-.6-.6-.6h-3.558a.604.604 0 00-.601.6v14.126c0 .328.272.6.601.6h7.902c2.457 0 4.286-.457 5.444-1.357 1.186-.928 1.786-2.2 1.786-3.8 0-1.6-.6-2.87-1.786-3.799zm-3.815 5.57c-.386.385-.915.585-1.644.585h-3.744v-4.699h3.744c.715 0 1.258.186 1.644.586.385.385.571.985.571 1.77 0 .772-.186 1.372-.571 1.758zM72.945 27.874h1.476v6.984h-1.476v-4.702l-1.753 2.699h-.696l-1.754-2.7v4.703h-1.475v-6.984h1.475l2.143 3.2 2.06-3.2zm6.336 7.152c-.919 0-1.642-.223-2.171-.696-.529-.445-.807-1.085-.807-1.892v-2.142c0-.779.278-1.419.807-1.892.557-.473 1.28-.723 2.171-.723.89 0 1.587.222 2.115.695.501.445.78 1.085.78 1.892v1.558h-4.37v.584c0 .39.139.696.39.919.25.222.64.334 1.113.334.78 0 1.252-.306 1.392-.919h1.475c-.084.696-.362 1.252-.863 1.67-.529.417-1.197.612-2.032.612zm-1.503-4.758v.445h2.895v-.445c0-.39-.14-.668-.39-.89-.25-.223-.612-.334-1.058-.334-.445 0-.807.111-1.057.334-.279.222-.39.529-.39.89zm8.985 4.757c-.918 0-1.642-.223-2.17-.696-.53-.445-.808-1.085-.808-1.892v-2.476c0-.974.167-1.753.473-2.282.306-.556.835-.918 1.531-1.14l1.67-.501c.334-.111.501-.306.501-.612v-.028h1.476v.055c0 .613-.14 1.058-.39 1.308s-.696.445-1.336.64l-1.28.362c-.474.139-.808.334-1.003.584-.195.278-.306.64-.306 1.169v.222c.529-.723 1.225-1.085 2.088-1.085.751 0 1.364.223 1.837.668.473.445.696 1.085.696 1.892v1.224c0 .807-.279 1.419-.808 1.892-.528.445-1.252.696-2.17.696zm1.503-2.671v-1.058c0-.39-.139-.723-.39-.973-.25-.25-.612-.362-1.03-.362-.584 0-1.112.278-1.586.807v1.558c0 .39.14.723.39.946.25.222.64.361 1.113.361.474 0 .835-.11 1.114-.361.25-.195.39-.529.39-.918zm5.962 2.672c-.918 0-1.642-.223-2.17-.696-.53-.445-.808-1.085-.808-1.892v-2.142c0-.779.278-1.419.807-1.892.557-.473 1.28-.723 2.171-.723.891 0 1.587.222 2.116.695.5.445.78 1.085.78 1.892v1.558h-4.37v.584c0 .39.138.696.389.919.25.222.64.334 1.113.334.78 0 1.253-.306 1.392-.919h1.475c-.083.696-.362 1.252-.863 1.67-.529.417-1.197.612-2.032.612zm-1.503-4.758v.445h2.895v-.445c0-.39-.139-.668-.39-.89-.25-.223-.612-.334-1.057-.334-.446 0-.808.111-1.058.334-.25.222-.39.529-.39.89zm5.929 4.588h-.362v-1.335h.14c.417 0 .723-.14.918-.418.195-.278.278-.723.278-1.307V27.9h5.233v6.955h-1.475v-5.703h-2.366v2.615c0 .974-.223 1.753-.64 2.282-.418.528-1.03.806-1.726.806zm9.847-6.982v2.254h1.893c.724 0 1.308.222 1.698.64.39.417.612 1.001.612 1.725 0 .723-.195 1.307-.612 1.725-.418.417-.974.64-1.698.64h-3.368v-6.984h1.475zm0 3.534v2.142h1.782c.278 0 .501-.083.668-.278.167-.195.25-.445.25-.78 0-.333-.083-.583-.25-.778-.167-.195-.39-.278-.668-.278h-1.782v-.028zm7.137 3.45h-1.475v-6.984h1.475v2.838h2.951v-2.838h1.475v6.984h-1.475V32.02h-2.951v2.838zm8.449.166c-.696 0-1.252-.195-1.698-.556-.445-.362-.64-.863-.64-1.503 0-.723.25-1.28.724-1.67.473-.389 1.197-.584 2.171-.584h1.531v-.556c0-.751-.446-1.113-1.309-1.113-.417 0-.751.083-.974.278-.222.167-.334.418-.334.724h-1.447c0-.724.25-1.308.724-1.725.473-.418 1.169-.613 2.031-.613.891 0 1.587.223 2.06.64.473.418.724 1.002.724 1.726v4.785h-.863l-.557-.779c-.528.64-1.224.946-2.143.946zm.306-1.336c.696 0 1.281-.25 1.782-.779V31.88h-1.531c-.947 0-1.42.306-1.42.946 0 .556.39.862 1.169.862zm6.308 1.168h-1.364v-.695l1.364-1.948a1.746 1.746 0 01-1.002-.723c-.251-.362-.39-.835-.39-1.391 0-.696.195-1.225.557-1.614.389-.39.863-.584 1.475-.584h3.618v6.955h-1.475V32.27h-1.169l-1.614 2.587zm1.085-3.756h1.726v-1.947h-1.726c-.668 0-1.002.334-1.002.974 0 .64.334.973 1.002.973zm13.668 5.9h-1.475v-2.727c-.445.501-1.03.752-1.726.752-.612 0-1.113-.223-1.503-.64-.389-.418-.584-1.002-.584-1.697v-2.644c0-.723.195-1.28.584-1.697.39-.417.891-.64 1.503-.64.696 0 1.281.25 1.726.751v-3.06h1.475v3.06c.446-.5 1.03-.75 1.726-.75.612 0 1.113.222 1.503.64.39.416.585 1 .585 1.696v2.643c0 .724-.195 1.28-.585 1.698-.39.417-.891.64-1.503.64-.696 0-1.28-.25-1.726-.752V37zm-2.7-3.31c.446 0 .863-.168 1.225-.53v-3.533c-.362-.362-.779-.529-1.225-.529-.334 0-.584.112-.779.334-.195.223-.306.501-.306.863v2.225c0 .362.111.64.306.863.167.195.445.306.779.306zm3.925 0c.334 0 .585-.112.779-.335.195-.222.307-.5.307-.862v-2.226c0-.362-.112-.64-.307-.863a1.01 1.01 0 00-.779-.334c-.445 0-.863.167-1.225.53v3.533c.362.361.78.556 1.225.556zm6.405 1.334c-.695 0-1.252-.195-1.698-.556-.445-.362-.64-.863-.64-1.503 0-.723.251-1.28.724-1.67.473-.389 1.197-.584 2.171-.584h1.531v-.556c0-.751-.445-1.113-1.308-1.113-.418 0-.752.083-.974.278-.223.167-.335.418-.335.724h-1.447c0-.724.251-1.308.724-1.725.473-.418 1.169-.613 2.032-.613.89 0 1.586.223 2.06.64.473.418.723 1.002.723 1.726v4.785h-.863l-.556-.779c-.529.64-1.225.946-2.144.946zm.307-1.336c.695 0 1.28-.25 1.781-.779V31.88h-1.531c-.946 0-1.42.306-1.42.946 0 .556.39.862 1.17.862zm8.135 1.337c-.918 0-1.642-.223-2.171-.696-.529-.445-.807-1.085-.807-1.892v-2.476c0-.974.167-1.753.473-2.282.306-.556.835-.918 1.531-1.14l1.67-.501c.334-.111.501-.306.501-.612v-.028h1.475v.055c0 .613-.139 1.058-.389 1.308-.251.25-.696.445-1.336.64l-1.281.362c-.473.139-.807.334-1.002.584-.195.278-.306.64-.306 1.169v.222c.529-.723 1.225-1.085 2.088-1.085.751 0 1.363.223 1.837.668.473.445.696 1.085.696 1.892v1.224c0 .807-.279 1.419-.808 1.892-.529.445-1.252.696-2.171.696zm1.503-2.671v-1.058c0-.39-.139-.723-.389-.973-.251-.25-.613-.362-1.03-.362-.585 0-1.114.278-1.587.807v1.558c0 .39.139.723.39.946.25.222.64.361 1.113.361s.835-.11 1.114-.361c.25-.195.389-.529.389-.918zM166.35 37v-9.127h.862l.557.78c.529-.64 1.225-.947 2.088-.947.696 0 1.308.223 1.753.668.474.446.724 1.085.724 1.92v2.17c0 .835-.223 1.447-.696 1.892-.473.445-1.085.668-1.837.668-.863 0-1.503-.278-1.948-.835V37h-1.503zm3.173-3.312c.389 0 .696-.11.946-.361.251-.25.39-.557.39-.974v-1.948c0-.39-.112-.723-.362-.973-.251-.25-.557-.362-.946-.362-.585 0-1.142.306-1.698.89v2.81c.556.612 1.113.918 1.67.918zm6.224 1.17h-1.475v-6.984h1.475v4.702l3.09-4.702h1.475v6.984h-1.475v-4.702l-3.09 4.702zm8.164 0h-1.475v-6.984h1.475v2.838h.919l2.032-2.838h1.225v.696l-1.949 2.726 2.06 2.866v.696h-1.336l-2.06-2.838h-.918v2.838h.027zm7.526.166c-.696 0-1.253-.195-1.698-.556-.446-.362-.64-.863-.64-1.503 0-.723.25-1.28.723-1.67.473-.389 1.197-.584 2.171-.584h1.531v-.556c0-.751-.445-1.113-1.308-1.113-.417 0-.751.083-.974.278-.223.167-.334.418-.334.724h-1.448c0-.724.251-1.308.724-1.725.473-.418 1.169-.613 2.032-.613.891 0 1.587.223 2.06.64.473.418.724 1.002.724 1.726v4.785h-.863l-.557-.779c-.529.64-1.253.946-2.143.946zm.306-1.336c.696 0 1.28-.25 1.781-.779V31.88h-1.531c-.946 0-1.419.306-1.419.946 0 .556.39.862 1.169.862zM14.576 17.705h-.029.029zm-.032 0h-.014.014zm6.789-7.241v.014s0 .015-.014.015a490.894 490.894 0 00-7.617 4.185c-.414.228-.486.628-.486 1.114-.028 4.87-.042 9.784-.028 14.754 0 .043-.043.115-.1.115h-7.86A.226.226 0 015 30.432V2.294c0-.028.029-.057.057-.057h5.216c.214 0 .529.272.729.414 3.443 2.586 6.887 5.185 10.316 7.77 0 0 .015 0 .015.015v.028zM50.989 30.56c0 .058-.027.087-.072.086-.2-.002-.628 0-.828 0-2.415 0-4.816.015-7.202 0-.043 0-.072-.043-.072-.085a2595.78 2595.78 0 01-.042-14.755c0-.614-.143-.957-.658-1.243a3556.875 3556.875 0 01-7.43-4.07l-.015-.015v-.028c0-.014 0-.014.015-.029l.014-.014c3.53-2.657 7.045-5.313 10.56-7.941a.95.95 0 01.586-.215h5.115c.029 0 .057.015.057.057l-.028 28.253z" fill="#5459BB"/><path d="M27.246 15.035v10.113c-.014.028-.029.071-.057.1l-.015.014c0 .014-.014.014-.028.014-.015 0-.015.014-.029.014-.014 0-.014.015-.028.015h-.1a1.012 1.012 0 01-.372-.186c-3.858-2.914-7.702-5.842-11.56-8.756a3.09 3.09 0 01-.386-.357c-.014-.014-.014-.028-.028-.028-.015-.014-.015-.043-.029-.057v-.1c0-.015 0-.029.014-.043v-.014c0-.015.015-.03.029-.043.014-.015.014-.029.028-.029.015-.014.029-.014.043-.028l7.93-4.1c.044-.014.087-.014.115.014 1.458 1.072 3.03 2.172 4.401 3.371.043.015.072.043.072.086zM41.05 16.25c-3.915 2.97-7.83 5.927-11.76 8.898a.614.614 0 01-.329.142h-.057c-.014 0-.029 0-.029-.014-.014 0-.028-.014-.057-.029 0 0-.014-.014-.014-.028 0 0-.014-.014-.014-.029 0 0 0-.014-.014-.014 0-.014-.015-.014-.015-.028v-.029c-.028-1.8-.043-3.6-.043-5.385 0-1.114.043-2.87-.028-4.313 0-.086.014-.243.071-.472.015-.043.029-.085.072-.1l4.315-3.256a.176.176 0 01.186-.014l7.845 4.056c.042.014.071.057.085.1.043.2-.028.371-.214.514zm-12.291 8.87v.014-.015zm-8.534 4.998c0 .257.057.643-.157.8-.2.157-.472.1-.672-.057-1.586-1.2-3.158-2.4-4.744-3.6a1.428 1.428 0 01-.257-.228c-.029-.029-.043-.057-.043-.086l-.014-9.07c0-.028 0-.057.014-.085 0-.015.014-.015.014-.029 0-.014.015-.014.029-.028l.029-.029a.27.27 0 01.114-.029c.028 0 .057 0 .086.015.185.085.342.171.457.257 1.643 1.242 3.286 2.5 4.93 3.742.057.043.143.129.228.257a.111.111 0 01.029.114c-.043 2.714-.043 5.385-.043 8.056zm21.368-12.083v8.955a.13.13 0 01-.042.1 600.504 600.504 0 01-4.773 3.614c-.214.157-1 .6-1-.043-.014-2.857-.029-5.713-.029-8.57a.16.16 0 01.043-.114c.1-.129.186-.229.286-.3 1.643-1.243 3.286-2.5 4.93-3.756.185-.143.328-.186.414-.158a.32.32 0 01.172.272zM27.244 35.946c0 .557-.643.386-.928.186a343.56 343.56 0 01-4.902-3.728.079.079 0 01-.043-.072V23.82c0-.272.029-.486.086-.658a.301.301 0 01.057-.085l.015-.015c.014-.014.028-.014.042-.028h.129c.014 0 .043.014.057.029l5.416 4.113c.028.029.057.057.057.1.014 2.9.014 5.785.014 8.67zm7.319-12.726v9.07a.13.13 0 01-.058.113 382.258 382.258 0 01-4.972 3.785c-.2.143-.4.172-.63.058-.242-.115-.17-.272-.17-.486-.015-2.028-.03-4.042 0-6.07 0-.629-.058-1.572 0-2.371 0-.043.014-.086.042-.115a.942.942 0 01.172-.171c1.7-1.286 3.4-2.585 5.101-3.87a.802.802 0 01.257-.144h.086c.014 0 .014 0 .029.015.014 0 .014 0 .028.014 0 0 .014 0 .014.014.015 0 .015.014.029.014.014 0 .014.015.029.015 0 .014.014.014.014.028 0 0 .014.015.014.029v.042a.044.044 0 01.014.028z" fill="#5459BB"/></svg>